<svg width="16" height="16" viewBox="0 0 16 16" fill="none" xmlns="http://www.w3.org/2000/svg">
<path d="M8 0.5C7.01509 0.5 6.03982 0.693993 5.12987 1.0709C4.21993 1.44781 3.39314 2.00026 2.6967 2.6967C2.00026 3.39314 1.44781 4.21993 1.0709 5.12987C0.693993 6.03982 0.5 7.01509 0.5 8C0.5 8.98491 0.693993 9.96018 1.0709 10.8701C1.44781 11.7801 2.00026 12.6069 2.6967 13.3033C3.39314 13.9997 4.21993 14.5522 5.12987 14.9291C6.03982 15.306 7.01509 15.5 8 15.5C9.98912 15.5 11.8968 14.7098 13.3033 13.3033C14.7098 11.8968 15.5 9.98912 15.5 8C15.5 6.01088 14.7098 4.10322 13.3033 2.6967C11.8968 1.29018 9.98912 0.5 8 0.5V0.5ZM8 1.75C9.6576 1.75 11.2473 2.40848 12.4194 3.58058C13.5915 4.75269 14.25 6.3424 14.25 8C14.25 9.6576 13.5915 11.2473 12.4194 12.4194C11.2473 13.5915 9.6576 14.25 8 14.25C6.3424 14.25 4.75269 13.5915 3.58058 12.4194C2.40848 11.2473 1.75 9.6576 1.75 8C1.75 6.3424 2.40848 4.75269 3.58058 3.58058C4.75269 2.40848 6.3424 1.75 8 1.75V1.75ZM6.75 8H4.875C4.72872 7.99995 4.58705 8.05121 4.47468 8.14486C4.3623 8.23851 4.28633 8.36861 4.26 8.5125L4.25 8.625V10.5013C4.24971 10.6574 4.30791 10.8081 4.41314 10.9235C4.51836 11.0389 4.66298 11.1107 4.81853 11.1248C4.97407 11.139 5.12926 11.0943 5.25354 10.9997C5.37782 10.9051 5.46217 10.7674 5.49 10.6137L5.5 10.5013V10.205C5.80448 10.5506 6.17731 10.8293 6.59495 11.0235C7.01259 11.2177 7.46596 11.3231 7.92643 11.3332C8.3869 11.3433 8.84445 11.2578 9.27021 11.0822C9.69596 10.9065 10.0807 10.6444 10.4 10.3125C10.457 10.2534 10.5017 10.1837 10.5317 10.1073C10.5617 10.0309 10.5764 9.94932 10.5749 9.86726C10.5734 9.7852 10.5557 9.70423 10.5229 9.62899C10.4901 9.55375 10.4428 9.48571 10.3837 9.42875C10.3247 9.37179 10.2549 9.32703 10.1785 9.29701C10.1021 9.267 10.0206 9.25234 9.93851 9.25384C9.85645 9.25535 9.77548 9.27301 9.70024 9.30581C9.625 9.33861 9.55696 9.38591 9.5 9.445C9.29063 9.66236 9.03654 9.83164 8.75532 9.94115C8.47409 10.0507 8.17243 10.0978 7.8712 10.0792C7.56998 10.0607 7.27638 9.97692 7.0107 9.83375C6.74503 9.69057 6.51363 9.4914 6.3325 9.25H6.75C6.90618 9.25029 7.05681 9.19209 7.17223 9.08686C7.28765 8.98164 7.35948 8.83702 7.37359 8.68147C7.38771 8.52593 7.34307 8.37074 7.24848 8.24646C7.15388 8.12218 7.01618 8.03783 6.8625 8.01L6.75 8ZM8 4.6675C7.54977 4.66696 7.10411 4.75786 6.69006 4.9347C6.27601 5.11154 5.90218 5.37062 5.59125 5.69625C5.47671 5.81609 5.41447 5.97653 5.41822 6.14227C5.42008 6.22433 5.43808 6.30523 5.4712 6.38033C5.50432 6.45544 5.55191 6.52329 5.61125 6.58C5.67059 6.63671 5.74052 6.68119 5.81705 6.71087C5.89358 6.74056 5.9752 6.75489 6.05727 6.75303C6.223 6.74928 6.38046 6.67984 6.495 6.56C6.70405 6.34149 6.95816 6.1711 7.23968 6.06066C7.52119 5.95022 7.82338 5.90237 8.12524 5.92045C8.42711 5.93853 8.72142 6.0221 8.98775 6.16535C9.25407 6.3086 9.48602 6.5081 9.6675 6.75H9.255C9.09882 6.74971 8.94819 6.80791 8.83277 6.91314C8.71735 7.01836 8.64552 7.16298 8.63141 7.31853C8.61729 7.47407 8.66193 7.62926 8.75652 7.75354C8.85112 7.87782 8.98882 7.96217 9.1425 7.99L9.255 8H11.125C11.2713 8.00005 11.4129 7.94879 11.5253 7.85514C11.6377 7.76149 11.7137 7.63139 11.74 7.4875L11.75 7.375V5.50375C11.7503 5.34757 11.6921 5.19694 11.5869 5.08152C11.4816 4.96611 11.337 4.89427 11.1815 4.88016C11.0259 4.86604 10.8707 4.91068 10.7465 5.00527C10.6222 5.09987 10.5378 5.23757 10.51 5.39125L10.5 5.50375V5.79625C10.1873 5.44142 9.80263 5.15724 9.37157 4.96262C8.94051 4.768 8.47296 4.66739 8 4.6675Z" fill="#1AC486"/>
</svg>
